<?xml version="1.0" encoding="iso-8859-1"?>
<!-- Generator: Adobe Illustrator 19.0.0, SVG Export Plug-In . SVG Version: 6.00 Build 0)  -->
<svg version="1.1" id="Layer_1" xmlns="http://www.w3.org/2000/svg" xmlns:xlink="http://www.w3.org/1999/xlink" x="0px" y="0px"
	 viewBox="0 0 512 512" style="enable-background:new 0 0 512 512;" xml:space="preserve">
<g>
	<path style="fill:#C1C1C1;" d="M440.357,215.626c-2.199,0-4.397-0.835-6.081-2.507l-98.715-98.189
		c-3.382-3.358-3.4-8.823-0.041-12.203c3.359-3.382,8.823-3.401,12.203-0.041l98.715,98.189c3.382,3.359,3.4,8.823,0.041,12.203
		C444.793,214.775,442.575,215.626,440.357,215.626z"/>
	<path style="fill:#C1C1C1;" d="M319.504,95.448c-2.2,0-4.399-0.835-6.082-2.508l-44.067-43.783
		c-3.38-3.358-3.399-8.823-0.039-12.203c3.358-3.382,8.823-3.399,12.203-0.039l44.066,43.783c3.38,3.358,3.399,8.823,0.039,12.203
		C323.938,94.598,321.721,95.448,319.504,95.448z"/>
	<path style="fill:#C1C1C1;" d="M81.029,215.626c-2.206,0-4.41-0.839-6.095-2.52c-3.375-3.367-3.38-8.829-0.015-12.203
		L237.913,37.546c3.365-3.376,8.829-3.382,12.203-0.015c3.375,3.367,3.38,8.829,0.015,12.203L87.139,213.091
		C85.453,214.78,83.242,215.626,81.029,215.626z"/>
</g>
<ellipse style="fill:#EFEFEF;" cx="259.659" cy="34.982" rx="17.745" ry="17.769"/>
<g>
	<path style="fill:#FF7258;" d="M259.66,61.38c-14.543,0-26.373-11.843-26.373-26.398S245.118,8.583,259.66,8.583
		c14.542,0,26.374,11.843,26.374,26.398S274.203,61.38,259.66,61.38z M259.66,25.842c-5.026,0-9.115,4.099-9.115,9.14
		s4.089,9.14,9.115,9.14c5.027,0,9.116-4.099,9.116-9.14S264.687,25.842,259.66,25.842z"/>
	<path style="fill:#FF7258;" d="M502.796,503.417H9.204c-5.083,0-9.204-4.121-9.204-9.204V212.955c0-5.083,4.121-9.204,9.204-9.204
		h493.591c5.083,0,9.204,4.121,9.204,9.204v281.257C512,499.297,507.879,503.417,502.796,503.417z"/>
</g>
<rect y="259.854" style="fill:#F95D48;" width="512" height="30.447"/>
<path style="fill:#EFEFEF;" d="M512,259.856H0V201.45c0-5.083,4.121-9.204,9.204-9.204h493.591c5.083,0,9.204,4.121,9.204,9.204
	V259.856z"/>
<path style="fill:#FF7258;" d="M471.397,234.679h-13.12c-4.766,0-8.629-3.862-8.629-8.629s3.864-8.629,8.629-8.629h13.12
	c4.766,0,8.629,3.862,8.629,8.629S476.162,234.679,471.397,234.679z"/>
<path style="fill:#FFDC65;" d="M424.799,234.679h-13.12c-4.766,0-8.629-3.862-8.629-8.629s3.864-8.629,8.629-8.629h13.12
	c4.766,0,8.629,3.862,8.629,8.629S429.565,234.679,424.799,234.679z"/>
<path style="fill:#72D54A;" d="M377.051,234.679h-13.12c-4.766,0-8.629-3.862-8.629-8.629s3.864-8.629,8.629-8.629h13.12
	c4.766,0,8.629,3.862,8.629,8.629S381.816,234.679,377.051,234.679z"/>
<path style="fill:#E2E2E2;" d="M173.184,234.679H40.497c-4.766,0-8.629-3.862-8.629-8.629s3.864-8.629,8.629-8.629h132.686
	c4.766,0,8.629,3.862,8.629,8.629S177.949,234.679,173.184,234.679z"/>
<g>
	<path style="fill:#EFEFEF;" d="M183.061,377.557c0,23.213,18.885,42.098,42.098,42.098s42.098-18.885,42.098-42.098
		c0-23.214-18.885-42.099-42.098-42.099S183.061,354.343,183.061,377.557z M250,377.557c0,13.696-11.143,24.839-24.839,24.839
		c-13.696,0-24.839-11.143-24.839-24.839c0-13.696,11.143-24.841,24.839-24.841C238.857,352.716,250,363.861,250,377.557z"/>
	<path style="fill:#EFEFEF;" d="M77.296,352.716c5.734,0,11.12,1.896,15.573,5.486c3.712,2.994,9.144,2.408,12.134-1.302
		c2.99-3.712,2.407-9.144-1.304-12.134c-7.446-6.003-16.824-9.308-26.403-9.308c-23.213,0-42.098,18.885-42.098,42.099
		c0,23.213,18.885,42.098,42.098,42.098c12.723,0,24.629-5.665,32.667-15.543c3.008-3.696,2.45-9.132-1.246-12.14
		c-3.696-3.006-9.132-2.45-12.14,1.246c-4.746,5.832-11.773,9.178-19.28,9.178c-13.696,0-24.839-11.143-24.839-24.839
		S63.598,352.716,77.296,352.716z"/>
	<path style="fill:#EFEFEF;" d="M309.725,353.515c6.158,0,11.359,4.028,11.359,8.797c0,4.767,3.864,8.629,8.629,8.629
		s8.629-3.862,8.629-8.629c0-14.366-12.838-26.056-28.618-26.056s-28.618,11.689-28.618,26.056s12.838,26.056,28.618,26.056
		c0.551,0,1.09-0.052,1.611-0.151c5.427,0.628,9.749,4.358,9.749,8.704c0,4.769-5.202,8.797-11.359,8.797
		s-11.359-4.028-11.359-8.797c0-4.767-3.864-8.629-8.629-8.629s-8.629,3.862-8.629,8.629c0,14.366,12.838,26.056,28.618,26.056
		c15.78,0,28.618-11.689,28.618-26.056s-12.838-26.056-28.618-26.056c-0.551,0-1.09,0.052-1.611,0.151
		c-5.427-0.628-9.749-4.358-9.749-8.704C298.366,357.543,303.568,353.515,309.725,353.515z"/>
	<path style="fill:#EFEFEF;" d="M135.406,335.458c-4.766,0-8.629,3.862-8.629,8.629v67.145c0,4.767,3.864,8.629,8.629,8.629h33.481
		c4.766,0,8.629-3.862,8.629-8.629s-3.864-8.629-8.629-8.629h-24.852v-58.515C144.035,339.321,140.173,335.458,135.406,335.458z"/>
	<path style="fill:#EFEFEF;" d="M414.048,417.614c0.124,0.096,0.247,0.192,0.377,0.282c0.128,0.089,0.261,0.168,0.395,0.25
		c0.102,0.063,0.202,0.129,0.308,0.188c0.186,0.104,0.379,0.196,0.573,0.286c0.055,0.025,0.106,0.056,0.161,0.081
		c0.013,0.006,0.025,0.01,0.037,0.015c0.056,0.024,0.114,0.046,0.17,0.069c5.557,2.397,11.449,3.616,17.522,3.616
		c24.425,0,44.297-19.871,44.297-44.297c0-24.425-19.871-44.297-44.297-44.297c-6.066,0-11.958,1.221-17.52,3.62
		c-0.058,0.023-0.116,0.046-0.173,0.07c-0.012,0.005-0.024,0.009-0.036,0.015c-0.054,0.024-0.105,0.054-0.159,0.079
		c-0.196,0.091-0.389,0.183-0.576,0.288c-0.105,0.059-0.204,0.123-0.305,0.185c-0.133,0.082-0.268,0.162-0.398,0.252
		c-0.129,0.089-0.25,0.184-0.373,0.278c-0.096,0.074-0.191,0.144-0.283,0.222c-0.131,0.109-0.253,0.227-0.377,0.343
		c-0.078,0.074-0.158,0.146-0.232,0.223c-0.117,0.12-0.227,0.244-0.336,0.369c-0.075,0.086-0.152,0.17-0.223,0.26
		c-0.094,0.117-0.183,0.239-0.27,0.361c-0.078,0.108-0.156,0.215-0.23,0.327c-0.07,0.108-0.135,0.219-0.2,0.33
		c-0.079,0.133-0.158,0.266-0.229,0.404c-0.051,0.098-0.097,0.199-0.144,0.298c-0.072,0.154-0.145,0.307-0.208,0.466
		c-0.039,0.097-0.072,0.196-0.108,0.295c-0.059,0.161-0.116,0.323-0.165,0.489c-0.033,0.114-0.06,0.229-0.089,0.345
		c-0.038,0.151-0.077,0.301-0.107,0.456s-0.049,0.308-0.071,0.464c-0.016,0.118-0.037,0.235-0.048,0.355
		c-0.021,0.214-0.028,0.429-0.032,0.645c-0.001,0.059-0.009,0.116-0.009,0.175v0.066c0,0.023,0,0.045,0,0.067v65.107
		c0,0.024,0,0.048,0,0.074v0.062c0,0.056,0.007,0.112,0.008,0.168c0.005,0.219,0.012,0.436,0.033,0.652
		c0.012,0.119,0.031,0.234,0.047,0.351c0.022,0.156,0.041,0.313,0.071,0.468c0.03,0.153,0.068,0.301,0.106,0.451
		c0.029,0.117,0.055,0.235,0.09,0.35c0.048,0.163,0.106,0.323,0.163,0.482c0.037,0.101,0.07,0.202,0.11,0.303
		c0.062,0.155,0.133,0.306,0.205,0.457c0.048,0.104,0.095,0.207,0.148,0.308c0.07,0.135,0.147,0.265,0.224,0.395
		c0.067,0.114,0.133,0.228,0.206,0.338c0.071,0.109,0.148,0.215,0.226,0.321c0.09,0.124,0.178,0.247,0.275,0.367
		c0.07,0.087,0.145,0.17,0.219,0.254c0.11,0.128,0.222,0.254,0.341,0.375c0.074,0.075,0.151,0.145,0.227,0.217
		c0.125,0.118,0.25,0.236,0.382,0.347C413.861,417.472,413.955,417.542,414.048,417.614z M460.63,378.103
		c0,14.909-12.129,27.038-27.038,27.038c-1.916,0-3.8-0.2-5.644-0.594V351.66c1.844-0.395,3.729-0.595,5.644-0.595
		C448.5,351.065,460.63,363.194,460.63,378.103z"/>
	<path style="fill:#EFEFEF;" d="M391.895,353.515c4.766,0,8.629-3.862,8.629-8.629s-3.864-8.629-8.629-8.629h-32.439
		c-4.766,0-8.629,3.862-8.629,8.629v69.461c0,4.767,3.864,8.629,8.629,8.629h32.439c4.766,0,8.629-3.862,8.629-8.629
		s-3.864-8.629-8.629-8.629h-23.81v-17.472h12.802c4.766,0,8.629-3.862,8.629-8.629s-3.864-8.629-8.629-8.629h-12.802v-17.472h23.81
		V353.515z"/>
</g>
<g>
</g>
<g>
</g>
<g>
</g>
<g>
</g>
<g>
</g>
<g>
</g>
<g>
</g>
<g>
</g>
<g>
</g>
<g>
</g>
<g>
</g>
<g>
</g>
<g>
</g>
<g>
</g>
<g>
</g>
</svg>
